<svg width="256" height="292" viewBox="0 0 256 292" fill="none" xmlns="http://www.w3.org/2000/svg">
<path d="M223.774 57.3403C223.573 55.8803 222.294 55.0723 221.237 54.9833C213.443 54.3976 205.649 53.8166 197.854 53.2403C197.854 53.2403 182.347 37.8453 180.645 36.1413C178.942 34.4383 175.616 34.9563 174.325 35.3363C174.135 35.3923 170.937 36.3793 165.647 38.0163C160.467 23.1103 151.325 9.4123 135.242 9.4123C134.798 9.4123 134.341 9.4303 133.884 9.4563C129.31 3.4073 123.644 0.779297 118.75 0.779297C81.285 0.779297 63.386 47.6143 57.774 71.4143C43.216 75.9253 32.874 79.1323 31.553 79.5473C23.427 82.0963 23.17 82.3523 22.103 90.0093C21.3 95.8063 0.0379639 260.235 0.0379639 260.235L165.716 291.277L255.486 271.857C255.486 271.857 223.973 58.8003 223.775 57.3403H223.774ZM156.49 40.8483L142.471 45.1873C142.476 44.1993 142.481 43.2273 142.481 42.1643C142.481 32.9003 141.195 25.4413 139.132 19.5283C147.419 20.5683 152.938 29.9973 156.49 40.8483ZM128.852 21.3653C131.156 27.1383 132.654 35.4233 132.654 46.6033C132.654 47.1753 132.649 47.6983 132.644 48.2273C123.527 51.0513 113.62 54.1173 103.691 57.1933C109.266 35.6773 119.716 25.2853 128.852 21.3653V21.3653ZM117.721 10.8283C119.338 10.8283 120.967 11.3773 122.526 12.4503C110.519 18.1003 97.649 32.3303 92.214 60.7473L69.328 67.8353C75.694 46.1603 90.81 10.8283 117.72 10.8283H117.721Z" fill="#95BF46"/>
<path d="M221.237 54.983C213.443 54.3973 205.649 53.8163 197.854 53.24C197.854 53.24 182.347 37.845 180.645 36.141C180.008 35.507 179.149 35.182 178.251 35.042L165.724 291.275L255.486 271.857C255.486 271.857 223.972 58.8 223.774 57.34C223.573 55.88 222.294 55.072 221.237 54.983" fill="#5E8E3E"/>
<path d="M135.242 104.585L124.173 137.511C124.173 137.511 114.475 132.335 102.587 132.335C85.1589 132.335 84.2819 143.272 84.2819 146.028C84.2819 161.066 123.482 166.828 123.482 202.052C123.482 229.765 105.905 247.61 82.2049 247.61C53.7649 247.61 39.2209 229.91 39.2209 229.91L46.8359 204.75C46.8359 204.75 61.7859 217.585 74.4009 217.585C82.6439 217.585 85.9969 211.095 85.9969 206.353C85.9969 186.737 53.8369 185.862 53.8369 153.629C53.8369 126.5 73.3089 100.247 112.615 100.247C127.76 100.247 135.242 104.585 135.242 104.585" fill="white"/>
</svg>
