<svg width="400" height="400" viewBox="0 0 400 400" fill="none" xmlns="http://www.w3.org/2000/svg">
<path d="M199.771 400C88.0803 397.854 0.781 306.296 0 199.771C2.17167 88.1637 93.243 0.781 199.771 0C311.386 2.23133 399.218 93.0993 400 199.771C397.794 311.469 306.439 399.218 199.771 400ZM199.771 14.1713C96.0653 16.2133 14.4357 100.744 13.7143 199.771C15.7313 303.56 100.748 385.107 199.771 385.828C303.56 383.811 385.107 298.794 385.829 199.771C383.871 95.989 298.651 14.892 199.771 14.1713V14.1713ZM151.771 363.428L202.971 216.228L256.457 360.228C220.423 372.291 186.356 373.022 151.771 363.428ZM112.457 103.314C93.7137 105.862 75.485 106.771 57.6 106.057C91.559 57.507 145.932 30.193 199.771 29.7143C243.808 30.5477 284.861 47.1937 314.971 74.5143C301.007 73.482 292.646 79.6063 286.629 90.057C277.884 117.037 296.362 137.008 306.743 157.257C316.558 175.759 315.779 196.797 310.4 214.857L284.8 302.172L223.086 118.857C229.516 118.259 235.989 118.066 241.829 117.028C248.741 115.489 250.258 109.057 245.486 105.143C243.963 103.924 242.286 103.315 240.457 103.315L203.429 106.058H175.315C167.377 106.526 144.964 98.8587 143.085 109.258C142.115 113.264 145.105 116.403 148.571 117.029C154.686 117.821 161.693 118.721 167.314 119.315L194.285 191.543L156.8 302.172L94.6287 118.857C101.207 118.286 107.873 118.086 113.829 117.028C118.705 116.417 120.838 113.98 120.229 109.714C119.364 105.922 115.984 103.359 112.457 103.314V103.314ZM43.8857 131.657L125.714 352.914C96.1887 338.361 72.8457 316.96 56.2283 291.428C25.83 242.918 22.6323 181.374 43.8857 131.657V131.657ZM363.657 245.257C350.223 289.126 322.785 325.461 284.801 347.429C286.629 342.552 289.524 334.324 293.486 322.743L341.029 184.685C345.601 171.276 348.801 156.343 350.629 139.886C351.247 133.153 351.267 126.364 350.172 120.228C369.651 162.243 375.177 203.859 363.657 245.257V245.257Z" fill="#0073AA"/>
</svg>
