<svg width="100" height="100" viewBox="0 0 100 100" fill="none" xmlns="http://www.w3.org/2000/svg">
<path d="M50 0C22.1792 0 0 22.1542 0 50C0 77.8458 22.1542 100 50 100C77.8458 100 100 77.8208 100 50C100 22.1792 77.8458 0 50 0ZM10.8667 50.4208L49.575 89.1125C28.2667 89.1333 10.8667 71.7333 10.8667 50.4208V50.4208ZM58.6875 88.2667L11.7542 41.2875C15.6667 23.8875 31.3125 10.8458 50 10.8458C56.1784 10.8627 62.2669 12.3266 67.7775 15.1203C73.2882 17.914 78.0678 21.9597 81.7333 26.9333L76.0875 31.7125C73.1445 27.4011 69.1897 23.8767 64.5693 21.4477C59.9488 19.0187 54.8034 17.7591 49.5833 17.7792C42.9775 17.7383 36.5255 19.7726 31.1377 23.595C25.7499 27.4174 21.6982 32.8349 19.5542 39.0833L60.4458 79.9958C70.4458 76.5083 78.2667 67.8167 80.4458 57.3708H63.4875V50H89.1333C89.1333 68.6875 76.0917 84.3542 58.6875 88.2667V88.2667Z" fill="#663399"/>
</svg>
