<svg width="256" height="256" viewBox="0 0 256 256" fill="none" xmlns="http://www.w3.org/2000/svg">
<g clip-path="url(#clip0_117_54)">
<path d="M185.532 88.8394L185.438 88.7994C185.381 88.7824 185.328 88.7526 185.284 88.7124C185.207 88.6301 185.151 88.5313 185.118 88.4237C185.086 88.316 185.079 88.2023 185.097 88.0914L190.264 56.5384L214.493 80.7474L189.295 91.4564C189.225 91.4845 189.15 91.4981 189.075 91.4964H188.974C188.925 91.4642 188.88 91.4259 188.84 91.3824C187.902 90.3396 186.781 89.4776 185.532 88.8394V88.8394ZM220.676 86.9164L246.582 112.794C251.962 118.175 254.657 120.859 255.639 123.971C255.786 124.431 255.906 124.892 256 125.366L194.087 99.1744C194.054 99.1607 194.02 99.1474 193.987 99.1344C193.739 99.0344 193.452 98.9204 193.452 98.6674C193.452 98.4134 193.746 98.2934 193.993 98.1934L194.073 98.1594L220.676 86.9164ZM254.944 133.672C253.607 136.182 251 138.786 246.589 143.199L217.38 172.369L179.603 164.511L179.403 164.471C179.068 164.417 178.714 164.357 178.714 164.057C178.57 162.5 178.107 160.99 177.354 159.619C176.601 158.249 175.574 157.048 174.336 156.092C174.182 155.938 174.223 155.698 174.269 155.477C174.269 155.444 174.269 155.411 174.283 155.384L181.388 111.813L181.414 111.666C181.454 111.332 181.514 110.945 181.815 110.945C183.337 110.757 184.807 110.267 186.138 109.504C187.469 108.742 188.636 107.723 189.569 106.505C189.629 106.438 189.669 106.365 189.749 106.325C189.963 106.225 190.217 106.325 190.438 106.418L254.938 133.672H254.944V133.672ZM210.664 179.079L162.633 227.057L170.853 176.582L170.867 176.515C170.873 176.45 170.887 176.385 170.907 176.322C170.974 176.162 171.147 176.095 171.315 176.028L171.395 175.994C173.195 175.227 174.787 174.044 176.041 172.543C176.201 172.356 176.395 172.175 176.642 172.142C176.706 172.132 176.772 172.132 176.836 172.142L210.656 179.086L210.663 179.079H210.664ZM152.466 237.212L147.052 242.62L87.198 156.212C87.1763 156.181 87.154 156.149 87.131 156.118C87.038 155.991 86.937 155.865 86.958 155.718C86.964 155.611 87.031 155.518 87.105 155.438L87.171 155.351C87.351 155.083 87.506 154.816 87.673 154.529L87.806 154.296L87.826 154.276C87.92 154.116 88.006 153.962 88.167 153.875C88.307 153.808 88.502 153.835 88.655 153.868L154.966 167.528C155.152 167.558 155.326 167.633 155.474 167.748C155.561 167.836 155.581 167.929 155.601 168.036C156.064 169.785 156.925 171.403 158.117 172.764C159.309 174.125 160.8 175.192 162.472 175.881C162.659 175.974 162.579 176.181 162.492 176.401C162.449 176.498 162.415 176.599 162.392 176.702C161.557 181.776 154.392 225.428 152.466 237.212V237.212ZM141.157 248.502C137.167 252.448 134.814 254.537 132.154 255.379C129.531 256.208 126.717 256.208 124.094 255.379C120.979 254.39 118.285 251.707 112.904 246.325L52.796 186.283L68.496 161.96C68.5625 161.838 68.6538 161.731 68.764 161.646C68.931 161.526 69.172 161.58 69.372 161.646C72.9757 162.732 76.8443 162.537 80.32 161.092C80.5 161.026 80.681 160.979 80.822 161.106C80.892 161.17 80.955 161.241 81.009 161.319L141.157 248.509V248.502V248.502ZM47.001 180.494L33.212 166.721L60.442 155.117C60.5117 155.087 60.5869 155.071 60.663 155.07C60.89 155.07 61.024 155.297 61.144 155.504C61.418 155.924 61.708 156.334 62.014 156.733L62.1 156.839C62.18 156.953 62.127 157.066 62.047 157.173L47.007 180.494H47.001ZM27.11 160.625L9.665 143.199C6.697 140.235 4.545 138.085 3.048 136.236L56.091 147.226L56.291 147.259C56.619 147.312 56.981 147.372 56.981 147.679C56.981 148.013 56.586 148.167 56.251 148.293L56.098 148.36L27.11 160.625V160.625ZM0 127.275C0.0606794 126.153 0.262949 125.043 0.602 123.971C1.591 120.859 4.278 118.175 9.665 112.794L31.989 90.4944C42.2678 105.396 52.5745 120.278 62.909 135.141C63.089 135.381 63.289 135.648 63.083 135.848C62.107 136.923 61.131 138.098 60.443 139.374C60.368 139.537 60.253 139.68 60.108 139.787C60.021 139.841 59.928 139.821 59.828 139.801H59.814L0 127.269V127.276V127.275ZM37.965 84.5254L67.982 54.5414C70.802 55.7764 81.069 60.1094 90.252 63.9814C97.204 66.9204 103.54 69.5914 105.532 70.4584C105.732 70.5384 105.913 70.6184 106 70.8184C106.053 70.9384 106.027 71.0924 106 71.2194C105.525 73.3841 105.596 75.633 106.206 77.7636C106.816 79.8942 107.947 81.8395 109.496 83.4244C109.696 83.6244 109.496 83.9114 109.322 84.1584L109.228 84.2984L78.75 131.455C78.67 131.589 78.596 131.702 78.462 131.789C78.302 131.889 78.075 131.842 77.887 131.796C76.7016 131.486 75.4831 131.32 74.258 131.302C73.162 131.302 71.972 131.502 70.769 131.722H70.762C70.629 131.742 70.508 131.769 70.402 131.689C70.2839 131.593 70.1822 131.478 70.101 131.349L37.965 84.5254ZM74.045 48.4854L112.905 9.6684C118.285 4.2934 120.979 1.6034 124.093 0.621397C126.716 -0.207132 129.531 -0.207132 132.154 0.621397C135.269 1.6034 137.962 4.2934 143.343 9.6684L151.765 18.0814L124.127 60.8374C124.059 60.9617 123.965 61.0706 123.853 61.1574C123.686 61.2714 123.452 61.2244 123.251 61.1574C121.072 60.4969 118.765 60.3767 116.529 60.8072C114.293 61.2377 112.196 62.206 110.418 63.6284C110.238 63.8154 109.97 63.7084 109.743 63.6084C106.133 62.0394 78.061 50.1884 74.044 48.4864L74.045 48.4854ZM157.633 23.9434L183.153 49.4334L177.003 87.4774V87.5774C176.998 87.6642 176.98 87.7497 176.95 87.8314C176.883 87.9644 176.749 87.9914 176.615 88.0314C175.301 88.4293 174.063 89.0456 172.953 89.8544C172.905 89.8882 172.86 89.926 172.819 89.9674C172.745 90.0474 172.672 90.1214 172.552 90.1344C172.454 90.1374 172.356 90.1214 172.264 90.0874L133.377 73.5834L133.304 73.5494C133.056 73.4494 132.762 73.3294 132.762 73.0754C132.533 70.9105 131.826 68.8237 130.69 66.9664C130.503 66.6594 130.296 66.3394 130.456 66.0254L157.633 23.9434V23.9434ZM131.352 81.4004L167.806 96.8234C168.006 96.9164 168.227 97.0034 168.314 97.2104C168.349 97.3347 168.349 97.4661 168.314 97.5904C168.207 98.1254 168.114 98.7324 168.114 99.3474V100.368C168.114 100.622 167.853 100.728 167.612 100.828L167.539 100.855C161.764 103.319 86.463 135.393 86.349 135.393C86.236 135.393 86.115 135.393 86.002 135.28C85.802 135.08 86.002 134.8 86.182 134.545L86.276 134.412L116.233 88.0774L116.286 87.9974C116.46 87.7164 116.661 87.4024 116.982 87.4024L117.282 87.4494C117.964 87.5424 118.566 87.6294 119.174 87.6294C123.719 87.6294 127.93 85.4194 130.47 81.6404C130.53 81.5404 130.607 81.4504 130.697 81.3734C130.877 81.2404 131.145 81.3074 131.352 81.4004V81.4004ZM89.604 142.724L171.683 107.759C171.683 107.759 171.803 107.759 171.917 107.873C172.364 108.32 172.745 108.62 173.113 108.901L173.293 109.014C173.461 109.108 173.628 109.214 173.641 109.388C173.641 109.455 173.641 109.495 173.628 109.555L166.596 152.699L166.569 152.873C166.523 153.206 166.476 153.587 166.162 153.587C164.288 153.713 162.473 154.294 160.874 155.28C159.275 156.265 157.94 157.625 156.985 159.242L156.951 159.295C156.858 159.449 156.771 159.595 156.617 159.675C156.477 159.743 156.297 159.716 156.149 159.683L90.694 146.196C90.627 146.183 89.678 142.731 89.604 142.724V142.724Z" fill="url(#paint0_radial_117_54)"/>
</g>
<defs>
<radialGradient id="paint0_radial_117_54" cx="0" cy="0" r="1" gradientUnits="userSpaceOnUse" gradientTransform="translate(128 -128) scale(256 256.001)">
<stop stop-color="#20C6B7"/>
<stop offset="1" stop-color="#4D9ABF"/>
</radialGradient>
<clipPath id="clip0_117_54">
<rect width="256" height="256" fill="white"/>
</clipPath>
</defs>
</svg>
