<svg width="158" height="158" viewBox="0 0 158 158" fill="none" xmlns="http://www.w3.org/2000/svg">
<g filter="url(#filter0_d_117_66)">
<path d="M79 0C37.5672 0 4 33.5672 4 75C4 116.433 37.5672 150 79 150C120.433 150 154 116.433 154 75C154 33.5672 120.433 0 79 0ZM47.5047 48C52.2156 48 55.8813 51.4359 56.2938 55.4953C56.7391 59.1562 55.2203 62.3578 51.1703 64.2844C49.0187 65.3578 48.1656 65.3578 47.725 64.7203C47.5047 64.2844 47.725 63.8719 48.1609 63.4266C52.0234 60.2344 52.0234 57.6469 51.5781 54.0094C51.3578 51.6422 49.6516 50.1469 47.9406 50.1469C40.4219 50.1469 29.7297 66.8484 31.2156 79.0781C31.8766 83.7891 34.6609 89.3578 40.6422 89.3578C42.5734 89.3578 44.725 88.7203 46.6469 87.8719C49.7734 86.2078 51.6531 84.9422 53.5094 82.8656C53.0453 77.3203 57.9016 70.0734 65.0781 70.0734C68.3031 70.0734 70.8672 71.3672 71.0828 73.7344C71.5 76.9359 68.7156 77.3719 67.8625 77.3719C67.0047 77.3719 65.4953 77.1516 65.4953 76.2984C65.3031 75.4406 67.4219 75.8625 67.225 73.9313C67.0047 72.6375 65.7109 72.225 64.4453 72.225C59.9266 72.225 57.3625 78.45 58 82.2797C58.2203 84.0094 59.0688 85.725 60.8078 85.725C62.0781 85.725 64.0094 83.7938 64.6375 81.0141C65.0734 79.0828 66.7891 77.7891 68.2984 77.7891C68.9359 77.7891 69.3484 78.0094 69.5687 78.8625V79.7203C69.3766 80.5781 68.7109 83.1656 68.9359 83.7937C68.9359 84.2391 69.1563 84.8672 70.0047 84.8672C70.5672 84.8672 72.7188 83.7422 74.8656 81.9844C75.5734 78.2953 76.4266 73.8797 76.4266 73.5141C76.6469 72 77.2844 70.5094 80.2844 70.5094C80.9406 70.5094 81.3578 70.7297 81.5781 71.5828V72.4406L80.7203 76.2984C83.5094 72.6609 87.5828 70.0969 90.1469 70.0969C91.2203 70.0969 92.0781 70.7297 92.0781 71.8031C92.0781 72.4406 92.0781 73.5141 91.6328 74.5922C90.7844 76.9359 89.7063 80.5969 89.0688 83.7937C89.0688 84.6516 89.2891 85.5047 90.3625 85.5047C91.4359 85.5047 94.6375 84.2344 97.2016 80.7938L97.2531 80.7703C97.2531 80.3531 97.2016 79.9406 97.2016 79.5281C97.2016 76.9406 97.4219 74.8172 97.8625 73.3031C98.2984 71.5922 100.427 70.1016 101.72 70.1016C102.353 70.1016 103.014 70.5141 103.014 71.1516C103.014 71.3719 103.014 71.8078 102.794 72.0094C101.936 74.8172 101.275 77.3766 101.275 79.9406C101.275 81.4547 101.5 83.5781 101.936 84.8719C101.936 85.0922 102.128 85.3078 102.348 85.3078C102.794 85.3078 105.794 82.5281 107.917 78.8625C105.986 77.5922 104.912 75.4453 104.912 72.8813C104.912 68.3672 107.725 66.0187 110.289 66.0187C112.441 66.0187 114.147 67.5141 114.147 70.5141C114.147 72.4453 113.509 74.5969 112.441 76.5187H113.073C114.442 76.5703 115.788 76.0078 116.711 75.0328C116.915 74.7066 117.214 74.4513 117.569 74.3016C119.669 71.6391 122.744 69.6656 126.381 69.6656C129.381 69.6656 132.142 70.9594 132.363 73.3031C132.798 76.5234 129.995 77.1609 129.137 77.1609C128.289 77.1609 126.775 76.9406 126.775 76.0875C126.775 75.2344 128.702 75.6516 128.505 73.7438C128.284 72.45 126.991 72.0141 125.697 72.0141C121.422 72.0141 118.642 77.5781 119.27 82.0969C119.491 83.8031 120.344 85.7344 122.059 85.7344C123.353 85.7344 125.28 83.8031 126.133 81.0234C126.545 79.3172 128.284 77.7984 129.77 77.7984C130.427 77.7984 130.844 78.0188 131.064 78.8719C131.064 79.3172 131.064 80.1656 130.206 82.9547C129.133 84.8813 129.133 85.9547 129.358 86.8125C129.55 88.5188 130.408 89.8125 131.284 90.45C131.441 90.6488 131.581 90.8605 131.702 91.0828C131.702 91.5281 131.477 91.9641 130.844 91.9641C130.623 91.9641 130.427 91.9641 130.206 91.7438C126.986 90.45 125.692 88.2984 125.275 86.1516C123.981 87.6656 122.495 88.5188 120.761 88.5188C117.972 88.5188 115.216 85.9547 114.78 82.7297C114.646 81.3621 114.805 79.9817 115.244 78.6797C113.973 79.4859 112.605 79.95 111.339 79.95H110.289C107.481 84.0234 104.477 86.8125 102.353 88.0828C101.622 88.4726 100.814 88.6966 99.9859 88.7391C99.5734 88.7391 98.9172 88.5188 98.7156 88.0828C98.1109 87.1313 97.7406 85.6406 97.4969 83.9344C94.4922 87.2016 90.3391 88.9594 88.4172 88.9594C86.2656 88.9594 85 87.6656 84.7797 85.5234V83.1797C85.4125 78.4688 87.1469 75.6609 87.1469 74.8031C87.1344 74.6902 87.0832 74.5852 87.002 74.5057C86.9208 74.4263 86.8147 74.3773 86.7016 74.3672C85.2156 74.3672 80.2844 79.5187 79.4266 82.9594L78.7703 85.7391C78.3531 87.6656 76.4266 88.9594 75.1328 88.9594C74.4953 88.9594 74.0594 88.7391 73.8625 87.8906V87.0328L74.1297 85.5703C71.4156 87.4969 68.7062 88.7391 67.4125 88.7391C65.4859 88.7391 64.4125 87.6656 64.2203 86.1516C62.9266 87.8906 61.4313 88.7391 59.5094 88.7391C57.2828 88.7391 55.1406 87.225 54.1141 85.0312C52.5719 86.7609 50.8375 88.4953 48.7891 89.8125C45.7891 91.7437 42.3719 93.2297 38.2891 93.2297C34.6516 93.2297 31.4312 91.2984 29.7203 89.5922C27.1328 87.225 25.6469 83.5875 25.4266 80.1656C24.1563 69.6703 30.5781 56.1656 40.4125 50.1609C42.7797 48.8672 45.1516 48.0188 47.4953 48.0188L47.5047 48ZM108.564 68.5828C107.931 68.5828 107.495 69.6563 107.495 70.7016C107.495 72.4406 108.344 74.3625 109.422 75.4406C109.852 74.2676 110.075 73.029 110.083 71.7797C110.083 69.6609 109.225 68.5875 108.564 68.5875V68.5828Z" fill="#7D2AE8"/>
</g>
<defs>
<filter id="filter0_d_117_66" x="0" y="0" width="158" height="158" filterUnits="userSpaceOnUse" color-interpolation-filters="sRGB">
<feFlood flood-opacity="0" result="BackgroundImageFix"/>
<feColorMatrix in="SourceAlpha" type="matrix" values="0 0 0 0 0 0 0 0 0 0 0 0 0 0 0 0 0 0 127 0" result="hardAlpha"/>
<feOffset dy="4"/>
<feGaussianBlur stdDeviation="2"/>
<feComposite in2="hardAlpha" operator="out"/>
<feColorMatrix type="matrix" values="0 0 0 0 0 0 0 0 0 0 0 0 0 0 0 0 0 0 0.25 0"/>
<feBlend mode="normal" in2="BackgroundImageFix" result="effect1_dropShadow_117_66"/>
<feBlend mode="normal" in="SourceGraphic" in2="effect1_dropShadow_117_66" result="shape"/>
</filter>
</defs>
</svg>
