<svg width="395" height="383" viewBox="0 0 395 383" fill="none" xmlns="http://www.w3.org/2000/svg">
<path d="M266.843 312.97C266.51 313.109 266.175 313.182 265.852 313.147L265.812 313.134C265.516 313.153 265.314 313.089 265.163 312.931C264.742 312.71 263.954 311.531 262.826 309.379L257.405 299.044C256.304 296.945 255.769 295.601 255.771 295.024C255.751 294.663 255.971 294.244 256.407 293.848L252.096 296.091C252.618 295.989 253.049 296.035 253.417 296.284C253.907 296.637 254.709 297.843 255.782 299.889L263.641 314.873C264.519 314.416 265.582 313.795 266.817 312.983L266.843 312.97Z" fill="black"/>
<path d="M242.309 315.888C240.628 316.442 239.041 315.892 237.945 314.706C236.849 313.519 236.125 312.116 235.649 310.599C235.172 309.082 234.979 307.566 235.119 305.909C235.277 304.309 236.262 302.942 237.943 302.388C239.653 301.824 241.24 302.374 242.336 303.561C243.432 304.747 244.156 306.151 244.632 307.668C245.109 309.185 245.302 310.7 245.144 312.3C245.004 313.957 244.019 315.324 242.309 315.888ZM233.768 311.219C234.398 313.222 235.517 314.685 237.099 315.616C238.69 316.576 240.435 316.727 242.401 316.079C244.367 315.431 245.698 314.265 246.396 312.582C247.094 310.899 247.142 309.051 246.513 307.048C245.892 305.073 244.801 303.601 243.211 302.641C241.629 301.709 239.855 301.568 237.889 302.216C235.952 302.855 234.62 304.021 233.922 305.704C233.196 307.396 233.148 309.244 233.768 311.219Z" fill="black"/>
<path d="M215.916 319.564C215.491 315.988 215.233 313.722 215.116 312.799C214.855 310.746 214.807 309.418 214.968 308.785C215.722 308.059 217.077 307.542 219.033 307.233C221.774 306.679 223.458 308.994 224.124 311.135C224.584 312.611 224.788 314.218 224.714 315.778C224.543 318.234 223.598 320.781 220.782 321.225C219.004 321.505 217.035 320.754 215.916 319.564ZM217.479 329.001C217.174 328.503 216.677 325.546 215.992 320.159C217.08 321.111 219.031 321.714 220.779 321.438C222.824 321.116 224.367 320.174 225.433 318.579C226.47 316.989 226.873 315.164 226.612 313.111C226.351 311.057 225.539 309.425 224.149 308.247C222.76 307.07 221.043 306.643 218.999 306.965C218.584 307.031 217.588 307.279 216.014 307.74L211.273 308.487C211.762 308.532 212.148 308.714 212.43 309.033C212.724 309.442 213.002 310.674 213.259 312.697L215.394 330.666C216.372 330.512 217.664 330.217 219.305 329.806C218.604 329.765 217.996 329.497 217.479 329.001Z" fill="black"/>
<path d="M195.576 324.203C193.986 324.192 192.777 323.164 192.248 321.721C191.689 320.278 191.426 318.928 191.459 317.639L200.519 317.704C200.302 319.052 199.937 320.368 199.176 321.801C198.415 323.234 197.136 324.214 195.576 324.203ZM189.464 317.325C189.398 319.273 189.946 320.925 191.047 322.342C192.147 323.759 193.701 324.489 195.711 324.504C197.871 324.519 199.557 323.812 200.799 322.352C202.012 320.893 202.668 319.159 202.77 317.091C202.868 315.114 202.321 313.431 201.099 312.044C199.878 310.656 198.202 309.954 196.072 309.939C193.552 309.921 190.964 311.281 189.861 313.551L190.041 313.552C191.337 311.613 193.563 310.311 195.603 310.325C199.142 310.351 200.797 312.701 200.564 317.405L189.464 317.325Z" fill="black"/>
<path d="M176.056 308.364C173.78 307.966 171.956 308.559 170.547 310.168L170.783 310.21C172.015 308.843 173.576 308.326 175.497 308.662C179.161 309.303 179.366 313.415 178.716 316.282C178.352 317.891 177.804 319.225 176.875 320.614C175.916 321.997 174.374 322.701 172.601 322.391C171.566 322.21 170.911 321.578 170.611 320.461C170.47 320.132 170.34 319.623 170.186 319.352C169.996 319.106 169.809 318.982 169.484 318.925C168.834 318.812 168.449 319.018 168.337 319.516C167.939 321.271 171.267 322.31 172.597 322.542C174.725 322.914 176.503 322.526 177.901 321.371C179.299 320.216 180.259 318.559 180.743 316.423C181.18 314.492 180.99 312.756 180.179 311.184C179.331 309.637 177.977 308.7 176.056 308.364Z" fill="black"/>
<path d="M323.589 165.115C321.086 165.406 319.55 167.939 319.938 172.271L320.409 177.982C320.484 177.43 320.693 177.043 321.036 176.822C321.493 176.527 322.645 176.273 324.492 176.058L329.859 175.465C331.319 175.295 332.447 174.741 333.209 173.777C333.905 172.73 334.199 171.549 334.088 170.204C333.972 168.799 333.102 165.187 331.255 165.402C330.659 165.471 330.385 165.805 330.435 166.402C330.501 167.21 331.343 167.565 332.108 167.717C332.872 167.87 333.746 168.614 333.857 169.959C333.968 171.304 333.481 172.327 332.47 172.837C331.519 173.34 330.692 173.527 329.41 173.675L328.278 173.807C328.507 172.935 328.584 172.051 328.513 171.184C328.352 169.24 327.804 167.704 326.839 166.579C325.874 165.454 324.811 164.973 323.589 165.115ZM328.294 171.451C328.351 172.138 328.293 172.9 328.126 173.794L324.548 174.18C322.671 174.398 321.377 174.398 320.724 174.142C320.404 173.907 320.201 173.267 320.117 172.25C319.803 168.453 322.056 167.316 323.755 167.118C324.828 166.994 325.811 167.242 326.707 167.892C327.633 168.539 328.153 169.747 328.294 171.451Z" fill="black"/>
<path d="M333.881 185.466C333.507 185.598 333.044 185.725 332.352 185.722C331.654 185.778 331.202 185.786 330.153 185.735L327.336 185.598L325.748 185.521C323.561 185.415 322.226 185.201 321.682 184.904C321.315 184.646 321.079 184.275 321.036 183.763L320.587 188.572C320.725 188.068 320.998 187.721 321.407 187.531C321.882 187.284 323.151 187.226 325.189 187.325L329.351 187.557L332.171 187.663C332.755 188.172 333.26 188.886 333.686 189.807C334.109 190.758 334.265 191.666 334.179 192.592C334.037 194.115 333.127 195.151 331.884 195.571C330.671 195.992 329.638 196.092 328.53 196.038L324.991 195.897C322.624 195.782 321.199 195.563 320.715 195.269C320.375 195.043 320.169 194.672 320.069 194.128L319.615 198.996C319.812 198.496 320.085 198.149 320.434 197.956C321.001 197.683 322.364 197.599 324.551 197.706L328.776 197.911C331.982 198.066 334.274 196.407 334.612 192.793C334.779 191 333.86 188.916 332.74 187.691L334.987 187.8C335.074 186.874 335.109 185.526 335.118 183.816C334.899 184.555 334.486 185.105 333.881 185.466Z" fill="black"/>
<path d="M323.807 206.97C321.345 206.432 319.03 208.318 317.917 212.522L316.412 218.051C316.671 217.555 317 217.259 317.399 217.162C317.931 217.033 319.106 217.167 320.923 217.564L326.191 218.746C327.627 219.059 328.88 218.904 329.929 218.244C330.943 217.484 331.624 216.467 331.978 215.164C332.349 213.804 332.761 210.122 330.944 209.725C330.358 209.597 329.986 209.822 329.828 210.401C329.615 211.183 330.289 211.79 330.958 212.181C331.628 212.573 332.199 213.556 331.844 214.859C331.49 216.162 330.681 216.966 329.552 217.119C328.483 217.284 327.639 217.191 326.378 216.916L325.265 216.673C325.778 215.926 326.153 215.119 326.382 214.279C326.894 212.398 326.901 210.774 326.374 209.401C325.847 208.029 325.008 207.232 323.807 206.97ZM326.084 214.459C325.903 215.125 325.589 215.823 325.126 216.612L321.617 215.814C319.77 215.411 318.549 214.991 318.021 214.538C317.798 214.214 317.825 213.545 318.093 212.56C319.094 208.884 321.608 208.544 323.279 208.909C324.334 209.14 325.177 209.692 325.801 210.595C326.454 211.504 326.533 212.81 326.084 214.459Z" fill="black"/>
<path d="M328.036 228.809C327.58 229.433 327.006 229.815 326.313 229.955C325.466 230 321.937 228.636 315.773 226.045C312.699 224.769 311.126 224.1 311.015 224.055C308.985 223.234 307.784 222.619 307.37 222.16C307.109 221.796 307.011 221.368 307.143 220.872L305.105 225.251C305.404 224.823 305.778 224.586 306.241 224.515C306.759 224.466 307.978 224.83 309.869 225.595L313.722 227.187L314.417 227.468C313.074 228.153 312.009 229.306 311.25 230.938C310.376 232.814 310.332 234.542 311.105 236.148C311.878 237.753 313.238 238.95 315.157 239.726C317.104 240.514 318.983 240.595 320.793 239.971C322.619 239.384 323.955 238.147 324.828 236.27C325.499 234.829 325.608 233.386 325.129 231.932L326.575 232.517C326.967 231.674 327.453 230.416 328.036 228.809ZM324.649 236.23C323.889 237.862 322.402 238.715 320.693 238.766C319.039 238.841 317.479 238.5 316.005 237.904C314.531 237.307 313.255 236.5 312.102 235.355C311.005 234.232 310.657 232.637 311.416 231.005C312.163 229.4 313.284 228.27 314.751 227.603L324.641 231.702C325.343 233.247 325.332 234.761 324.649 236.23Z" fill="black"/>
<path d="M317.606 263.182C318.728 261.762 316.359 260.287 315.39 261.802C314.965 262.42 315.101 263.281 315.712 263.662C316.298 264.026 317.181 263.8 317.606 263.182ZM312.114 258.633C311.724 258.566 311.274 258.427 310.637 258.136C310 257.846 309.601 257.633 308.71 257.078L306.316 255.587L304.966 254.747C303.107 253.589 302.046 252.752 301.732 252.204C301.52 251.825 301.512 251.361 301.724 250.893L298.971 254.897C299.378 254.516 299.786 254.346 300.194 254.388C300.712 254.428 301.849 254.995 303.581 256.073L307.104 258.302L311.909 261.258C312.47 260.443 313.141 259.307 313.966 257.844C313.414 258.383 312.802 258.637 312.114 258.633Z" fill="black"/>
<path d="M309.028 264.859C308.656 264.726 308.238 264.512 307.704 264.072C307.129 263.676 306.773 263.397 305.992 262.695L303.894 260.81L302.712 259.748C301.083 258.284 300.162 257.295 299.925 256.72C299.801 256.286 299.871 255.825 300.158 255.398L296.786 258.897C297.207 258.59 297.635 258.491 298.071 258.601C298.593 258.707 299.614 259.463 301.131 260.826L304.212 263.635L306.353 265.518C306.808 267.379 306.516 268.849 305.496 269.908C304.476 270.966 303.103 271.224 301.878 270.768C300.674 270.332 299.768 269.759 298.965 269.038L296.311 266.693C294.548 265.109 293.581 264.039 293.41 263.482C293.265 263.07 293.337 262.65 293.601 262.203L290.208 265.724C290.695 265.436 291.123 265.337 291.514 265.406C292.103 265.573 293.211 266.367 294.84 267.831L297.987 270.658C298.656 271.259 299.32 271.694 299.998 271.941C300.542 273.84 300.271 275.33 299.21 276.432C298.148 277.534 296.796 277.77 295.571 277.314C294.367 276.877 293.461 276.305 292.658 275.584L290.004 273.239C288.241 271.655 287.274 270.585 287.103 270.028C286.958 269.616 287.03 269.196 287.294 268.749L283.901 272.27C284.388 271.982 284.816 271.883 285.207 271.952C285.796 272.119 286.904 272.913 288.533 274.377L291.68 277.204C294.09 279.369 296.859 279.52 299.42 276.862C300.481 275.761 300.812 274.164 300.413 272.072C302.269 272.651 304.041 272.066 305.727 270.316C306.726 269.279 307.084 267.828 306.799 265.919L308.428 267.383C309.073 266.713 309.943 265.681 311.018 264.349C310.386 264.789 309.723 264.959 309.028 264.859Z" fill="black"/>
<path d="M283.406 292.656C281.988 293.715 280.28 293.718 278.824 292.971C277.368 292.224 276.193 291.154 275.216 289.9C274.24 288.645 273.534 287.3 273.099 285.716C272.701 284.179 273.174 282.59 274.593 281.531C276.035 280.454 277.743 280.451 279.199 281.198C280.655 281.945 281.83 283.015 282.807 284.269C283.783 285.524 284.489 286.869 284.887 288.406C285.322 289.99 284.849 291.579 283.406 292.656ZM273.63 291.084C274.92 292.741 276.494 293.737 278.327 294.09C280.179 294.467 281.901 294.042 283.559 292.803C285.218 291.565 286.092 290.051 286.182 288.262C286.271 286.473 285.683 284.741 284.393 283.084C283.121 281.451 281.572 280.437 279.72 280.061C277.887 279.708 276.141 280.15 274.482 281.389C272.847 282.61 271.973 284.123 271.884 285.912C271.77 287.719 272.358 289.451 273.63 291.084Z" fill="black"/>
<path d="M128.817 300.577L127.987 301.898L135.774 306.29L136.603 304.969L128.817 300.577Z" fill="black"/>
<path d="M96.5769 283.113L94.7862 281.013L99.421 277.25C99.6306 277.08 100.45 276.376 100.939 275.979C101.405 275.601 102.239 274.962 102.872 274.641C103.87 274.101 104.911 273.797 105.662 274.308L102.159 270.199C102.381 270.598 102.474 270.985 102.463 271.342C102.46 272.078 101.304 273.403 98.9985 275.275L93.6183 279.643L90.9711 276.538L90.6451 276.803L93.2922 279.908L91.9181 281.023C91.8715 281.061 91.6852 281.212 91.3553 281.519L90.5867 282.143C90.4042 282.252 90.148 282.46 89.7791 282.721C89.0377 283.285 88.7036 283.401 87.9774 283.798C87.2513 284.194 86.7771 284.193 86.1942 284.202C85.5685 284.208 85.0124 283.926 84.6036 283.446C83.5098 282.21 83.8811 280.981 84.7429 280.281C85.5813 279.601 86.3458 278.787 85.8981 278.262C85.4893 277.782 84.9061 277.561 84.4402 277.939C83.7415 278.506 83.3619 279.355 83.2586 280.482C83.1553 281.609 83.4753 282.585 84.1955 283.43C85.7137 285.21 87.2567 285.31 89.0049 284.818C90.0422 284.555 91.5175 283.512 92.5774 282.767C93.0859 282.393 93.6915 281.901 94.4601 281.277L96.2508 283.378L96.5769 283.113Z" fill="black"/>
<path d="M83.0663 267.686C82.8339 266.989 82.8592 266.318 83.1574 265.697C83.3942 265.389 83.7092 265.036 84.2928 264.667C84.8462 264.246 85.2215 263.996 86.1326 263.474L88.5796 262.073L89.9592 261.282C91.8595 260.194 93.1065 259.652 93.7521 259.628C94.1963 259.616 94.627 259.818 94.9619 260.214L92.5145 256.015C92.6932 256.501 92.6662 256.931 92.4336 257.306C92.1791 257.763 91.1462 258.493 89.3761 259.507L87.8923 260.357L86.8469 260.887C85.9727 261.353 85.3136 261.593 84.4462 261.951C82.8374 262.527 81.3227 262.669 80.7335 261.658L80.6882 261.58C80.3407 260.984 80.2098 260.402 80.3519 259.871C80.4939 259.341 80.499 258.992 80.4193 258.796C80.102 258.251 79.4698 258.06 78.9081 258.347C78.3723 258.62 78.3872 259.718 78.7472 260.514C79.9105 262.51 81.692 263.183 84.0766 262.509L80.8639 264.384C81.3473 265.213 82.0901 266.309 83.0663 267.686Z" fill="black"/>
<path d="M70.3231 243.562C69.7179 241.899 70.2113 240.272 71.3517 239.107C72.4921 237.943 73.8604 237.141 75.3491 236.582C76.8378 236.024 78.3345 235.751 79.9824 235.805C81.5742 235.881 82.9627 236.802 83.5679 238.465C84.1834 240.157 83.69 241.784 82.5496 242.948C81.4092 244.113 80.041 244.915 78.5523 245.473C77.0636 246.032 75.5668 246.305 73.9751 246.229C72.3272 246.175 70.9386 245.254 70.3231 243.562ZM74.672 234.722C72.7059 235.459 71.2921 236.663 70.4207 238.303C69.5211 239.954 69.429 241.719 70.1368 243.664C70.8446 245.609 72.0446 246.889 73.7367 247.504C75.4288 248.119 77.2631 248.072 79.2293 247.334C81.1674 246.607 82.5914 245.432 83.4909 243.781C84.3624 242.14 84.4443 240.347 83.7365 238.402C83.0389 236.485 81.8389 235.205 80.1468 234.59C78.4444 233.947 76.6101 233.995 74.672 234.722Z" fill="black"/>
<path d="M65.3018 229.455C65.6293 229.236 66.0451 229 66.7166 228.836C67.378 228.612 67.8141 228.494 68.8438 228.289L71.6092 227.736L73.1685 227.425C75.3161 226.996 76.6654 226.88 77.2703 227.034C77.6936 227.194 78.0195 227.496 78.1945 227.981L77.3733 223.222C77.3718 223.742 77.1976 224.144 76.8509 224.427C76.4555 224.781 75.2403 225.146 73.2398 225.545L69.1454 226.332L66.3851 226.914C65.6857 226.564 65.0094 225.996 64.3563 225.209C63.698 224.392 63.3097 223.553 63.1516 222.636C62.8914 221.128 63.5022 219.906 64.5973 219.198C65.6631 218.495 66.6378 218.148 67.7263 217.931L71.1927 217.208C73.5168 216.744 74.9545 216.61 75.5005 216.776C75.8892 216.912 76.1858 217.22 76.4247 217.723L75.5933 212.904C75.5329 213.436 75.3588 213.838 75.0709 214.109C74.5923 214.511 73.294 214.923 71.1464 215.352L66.9982 216.18C63.8504 216.808 62.0625 218.97 62.6797 222.547C62.9857 224.321 64.421 226.114 65.8261 227.026L63.6197 227.466C63.7778 228.383 64.0956 229.695 64.5334 231.351C64.553 230.583 64.8091 229.951 65.3018 229.455Z" fill="black"/>
<path d="M60.8261 203.823L60.8419 201.033L72.2354 200.647C74.0044 200.587 74.9076 199.897 74.9152 198.547C74.9193 197.827 74.8612 197.499 74.5955 196.788C74.3299 196.047 73.5244 195.355 72.2987 194.766L72.0874 195.013C72.5965 195.116 73.0443 195.431 73.491 195.956C73.9377 196.48 74.1447 196.983 74.1418 197.493C74.1372 198.303 73.5652 198.743 72.3958 198.782L60.8525 199.173L60.8752 195.153L60.4255 195.169L60.4027 199.189L55.7254 199.347L55.723 199.767L57.1314 199.869C57.431 199.889 57.8501 199.995 58.3588 200.158C58.8677 200.29 59.2261 200.518 59.4944 200.779C59.9709 201.333 60.5047 202.365 60.5263 203.833L60.8261 203.823Z" fill="black"/>
<path d="M66.9077 155.17C67.4544 153.677 68.8623 152.795 70.4445 152.656C72.0371 152.489 73.4405 152.578 74.6834 152.93L71.5682 161.438C70.3299 160.899 69.1718 160.227 68.0331 159.155C66.8944 158.082 66.3714 156.635 66.9077 155.17ZM75.6611 151.131C73.7876 150.584 71.9944 150.689 70.2448 151.372C68.4953 152.054 67.2606 153.335 66.5695 155.223C65.8268 157.251 65.9475 159.013 66.9498 160.545C67.9624 162.049 69.429 163.097 71.4069 163.708C73.2988 164.292 75.1207 164.196 76.8828 163.392C78.645 162.587 79.8922 161.185 80.6246 159.185C81.4911 156.819 81.0389 154.045 79.2008 152.443L79.1389 152.612C80.5895 154.314 81.1081 156.732 80.4067 158.647C79.1895 161.972 76.345 162.944 71.8446 161.554L75.6611 151.131Z" fill="black"/>
<path d="M72.3449 141.063C72.7402 141.095 73.2158 141.169 73.8458 141.456C74.5055 141.69 74.9215 141.868 75.8575 142.344L78.3713 143.622L79.7887 144.343C81.7409 145.335 82.8699 146.077 83.244 146.57C83.4725 146.955 83.5346 147.39 83.3617 147.873L85.7586 143.68C85.4253 144.082 85.0327 144.286 84.5809 144.291C84.0457 144.322 82.863 143.855 81.0445 142.931L77.3422 141.015L74.8135 139.763C74.4901 139.061 74.3244 138.203 74.3164 137.191C74.3233 136.152 74.556 135.262 75.0176 134.455C75.7768 133.126 77.0349 132.556 78.3428 132.683C79.6239 132.797 80.6076 133.129 81.5971 133.632L84.7676 135.21C86.8803 136.284 88.0895 137.067 88.4101 137.532C88.6268 137.878 88.6621 138.299 88.5278 138.836L90.9545 134.59C90.5677 134.965 90.1751 135.169 89.7767 135.202C89.1465 135.217 87.8686 134.736 85.9164 133.743L82.1457 131.826C79.2843 130.372 76.5072 130.943 74.7058 134.095C73.8125 135.657 73.7896 137.931 74.3054 139.505L72.2997 138.485C71.8382 139.292 71.2484 140.505 70.5335 142.058C71.0395 141.474 71.6432 141.143 72.3449 141.063Z" fill="black"/>
<path d="M91.6734 113.728C94.5331 115.913 96.3372 117.306 97.0809 117.864C98.7361 119.107 99.7157 119.993 100.044 120.539C99.992 121.55 99.34 122.822 98.0875 124.356C96.4186 126.588 93.5066 126.126 91.4847 125.095C90.0905 124.385 88.7951 123.412 87.7425 122.285C86.127 120.472 85.029 118.073 86.8318 115.865C87.9704 114.471 89.9866 113.661 91.6734 113.728ZM83.7933 108.26C84.3769 108.399 86.8517 110.107 91.1936 113.368C89.6988 113.445 87.8025 114.345 86.6829 115.716C85.3734 117.319 84.8814 119.011 85.2118 120.834C85.5612 122.633 86.554 124.166 88.2093 125.409C89.8645 126.652 91.6354 127.232 93.5169 127.108C95.3985 126.984 96.994 126.121 98.3034 124.518C98.5691 124.192 99.1423 123.348 99.9992 121.968L103.036 118.25C102.636 118.55 102.216 118.684 101.777 118.654C101.265 118.57 100.182 117.906 98.5503 116.681L84.1801 105.702C83.5538 106.469 82.7908 107.545 81.848 108.936C82.4044 108.492 83.0529 108.267 83.7933 108.26Z" fill="black"/>
<path d="M125.309 82.4671C127.233 85.5092 128.443 87.4417 128.946 88.2235C130.068 89.9636 130.681 91.137 130.803 91.7689C130.416 92.7199 129.384 93.7217 127.708 94.7745C125.41 96.3587 122.86 94.9489 121.327 93.2901C120.269 92.1475 119.392 90.7857 118.792 89.356C117.898 87.0834 117.682 84.4212 120.096 82.906C121.62 81.9489 123.764 81.8427 125.309 82.4671ZM119.82 74.6139C120.316 74.9402 122.042 77.3982 124.984 81.9627C123.569 81.54 121.506 81.7724 120.007 82.7135C118.254 83.814 117.23 85.2713 116.927 87.1265C116.649 88.9657 117.058 90.7633 118.179 92.5034C119.3 94.2434 120.751 95.3871 122.54 95.8932C124.329 96.3992 126.101 96.102 127.854 95.0014C128.209 94.7781 129.025 94.1602 130.283 93.1223L134.348 90.5703C133.877 90.7246 133.442 90.7143 133.044 90.5392C132.597 90.2886 131.812 89.2932 130.708 87.5784L121.036 72.292C120.198 72.8184 119.128 73.5959 117.787 74.6152C118.453 74.3744 119.13 74.374 119.82 74.6139Z" fill="black"/>
<path d="M142.407 70.3878C143.872 69.7697 145.424 70.2219 146.529 71.3186C147.662 72.4035 148.484 73.522 149.006 74.7017L140.659 78.2235C140.279 76.9185 140.049 75.5828 140.133 73.9847C140.216 72.3867 140.97 70.9942 142.407 70.3878ZM150.973 74.1974C150.198 72.4082 148.984 71.1293 147.365 70.2819C145.747 69.4346 144.005 69.3877 142.154 70.1691C140.163 71.0087 138.919 72.3151 138.405 74.1274C137.919 75.9282 138.061 77.7567 138.855 79.6683C139.614 81.4969 140.839 82.8035 142.557 83.5765C144.275 84.3495 146.115 84.322 148.078 83.494C150.399 82.5144 152.192 80.2603 152.229 77.7699L152.064 77.8399C151.706 80.1072 150.222 82.1659 148.343 82.9589C145.081 84.335 142.553 82.862 140.746 78.5123L150.973 74.1974Z" fill="black"/>
<path d="M156.171 64.2336C157.151 64.3664 157.789 64.6132 158.425 65.4158C158.909 65.9465 159.029 66.0719 159.464 66.7996L159.951 67.4839L166.167 76.2547L167.829 75.8521L169.229 67.0884C169.554 65.0655 169.842 63.5761 170.123 62.6132C170.433 61.6432 170.865 60.9522 171.455 60.5624L166.696 61.6842C166.907 61.6641 167.645 61.6704 167.991 61.71L168.574 61.8466C168.998 61.96 169.214 62.247 169.287 62.723C169.36 63.4769 169.077 65.5514 168.502 68.9617C167.928 72.3719 167.642 74.2928 167.586 74.7385C167.531 74.6283 167.105 74.0834 166.33 73.0676C165.584 72.0446 164.852 71.0803 164.125 70.1453C163.422 69.1739 162.741 68.1661 162.07 67.0634C161.399 65.9606 161.009 65.1602 160.894 64.6326C160.721 63.8413 160.962 63.2583 161.594 62.9201L156.171 64.2336Z" fill="black"/>
<path d="M187.871 58.5136C189.456 58.3947 190.752 59.3197 191.405 60.7138C192.089 62.1056 192.469 63.43 192.549 64.7168L183.514 65.3943C183.612 64.0341 183.861 62.6926 184.494 61.202C185.127 59.7115 186.315 58.6302 187.871 58.5136ZM194.565 64.8662C194.46 62.9199 193.769 61.3182 192.548 59.9968C191.327 58.6753 189.714 58.0747 187.71 58.225C185.556 58.3865 183.938 59.2294 182.828 60.7858C181.747 62.34 181.245 64.1214 181.324 66.1898C181.4 68.1684 182.093 69.8 183.432 71.0826C184.771 72.3651 186.503 72.9267 188.627 72.7674C191.14 72.579 193.6 71.0115 194.5 68.6592L194.32 68.6726C193.198 70.7109 191.095 72.1915 189.06 72.3441C185.53 72.6088 183.676 70.4029 183.496 65.6963L194.565 64.8662Z" fill="black"/>
<path d="M212.334 49.8983C212.689 49.9603 213.005 50.0791 213.249 50.2817L213.275 50.3141C213.528 50.4572 213.657 50.6193 213.688 50.8327C213.904 51.2433 213.861 52.6537 213.531 55.0611L211.943 66.6225C211.62 68.9705 211.275 70.3836 210.937 70.8647C210.742 71.1781 210.317 71.4106 209.729 71.508L214.57 71.9443C214.082 71.7499 213.756 71.4798 213.6 71.0746C213.405 70.5154 213.451 69.0753 213.765 66.7868L216.068 50.0241C215.082 49.9353 213.848 49.8843 212.364 49.901L212.334 49.8983Z" fill="black"/>
<path d="M233.674 61.2992C235.386 61.7493 236.382 63.0645 236.603 64.6406C236.824 66.2167 236.612 67.7718 236.129 69.2867C235.646 70.8017 234.93 72.1622 233.856 73.4598C232.8 74.7002 231.194 75.3001 229.482 74.8499C227.742 74.3921 226.746 73.0769 226.525 71.5008C226.304 69.9247 226.516 68.3697 226.999 66.8547C227.482 65.3398 228.198 63.9793 229.254 62.7389C230.327 61.4413 231.934 60.8414 233.674 61.2992ZM238.044 69.7903C238.681 67.7894 238.6 65.9713 237.83 64.3436C237.068 62.6874 235.711 61.6179 233.709 61.0915C231.707 60.565 229.931 60.8104 228.381 61.8277C226.83 62.845 225.722 64.3503 225.084 66.3512C224.456 68.3235 224.508 70.1339 225.269 71.7902C226.04 73.4179 227.426 74.495 229.428 75.0214C231.401 75.5403 233.177 75.2948 234.727 74.2775C236.307 73.2679 237.415 71.7626 238.044 69.7903Z" fill="black"/>
<path d="M247.724 64.2623C248.337 64.7064 248.691 65.2624 248.784 65.9302C248.767 66.7455 247.084 70.1276 243.928 76.0321C242.37 78.9772 241.557 80.4835 241.502 80.5901C240.496 82.5351 239.766 83.6844 239.258 84.0788C238.861 84.3257 238.409 84.4163 237.904 84.2849L242.299 86.2866C241.876 85.9953 241.659 85.6329 241.62 85.1871C241.608 84.688 242.078 83.5192 243.016 81.7073L244.959 78.0162L245.304 77.35C245.914 78.6485 247.031 79.684 248.669 80.43C250.553 81.2879 252.345 81.3465 254.071 80.6181C255.797 79.8898 257.143 78.5931 258.094 76.7546C259.059 74.8895 259.285 73.083 258.773 71.3352C258.301 69.5731 257.117 68.2765 255.233 67.4186C253.786 66.7596 252.296 66.6406 250.748 67.0883L251.465 65.7028C250.619 65.3174 249.349 64.8378 247.724 64.2623ZM255.178 67.5909C256.816 68.3369 257.589 69.7756 257.514 71.4205C257.467 73.012 256.995 74.5094 256.265 75.9216C255.534 77.3338 254.599 78.5541 253.323 79.6519C252.074 80.6964 250.39 81.0161 248.752 80.2702C247.141 79.5366 246.052 78.4478 245.469 77.0303L250.473 67.5555C252.131 66.8947 253.703 66.9195 255.178 67.5909Z" fill="black"/>
<path d="M276.028 79.2818C277.34 80.1802 277.767 81.7079 277.398 83.1988C277.053 84.7065 276.515 85.9728 275.766 87.0216L268.291 81.9027C269.225 80.9076 270.264 80.0213 271.698 79.2593C273.132 78.4974 274.741 78.4004 276.028 79.2818ZM277.244 88.3972C278.39 86.8205 278.86 85.1447 278.741 83.3559C278.622 81.567 277.742 80.0928 276.084 78.9571C274.302 77.7367 272.508 77.3804 270.661 77.8952C268.838 78.4269 267.323 79.4966 266.081 81.1524C264.893 82.7361 264.404 84.4358 264.64 86.2685C264.876 88.1012 265.873 89.6192 267.631 90.8227C269.71 92.2465 272.617 92.5664 274.803 91.3021L274.654 91.2004C272.494 92.0821 269.919 91.9176 268.236 90.765C265.315 88.7649 265.259 85.8931 268.086 82.1257L277.244 88.3972Z" fill="black"/>
<path d="M290.13 88.8604C290.536 89.4685 290.682 90.1166 290.549 90.7838C290.395 91.1378 290.177 91.5539 289.7 92.0519C289.266 92.5919 288.962 92.9239 288.203 93.6497L286.165 95.599L285.016 96.6981C283.434 98.2119 282.351 99.04 281.725 99.2238C281.294 99.3463 280.82 99.2597 280.391 98.9647L283.859 102.369C283.56 101.95 283.477 101.532 283.609 101.115C283.741 100.615 284.566 99.6598 286.04 98.2497L287.276 97.0676L288.164 96.3009C288.901 95.6376 289.486 95.2447 290.243 94.6859C291.671 93.7348 293.118 93.2222 293.953 94.0419L294.017 94.1049C294.51 94.5883 294.786 95.112 294.783 95.6548C294.779 96.1976 294.863 96.5322 294.992 96.7C295.441 97.1413 296.109 97.1665 296.586 96.7521C297.041 96.3583 296.746 95.3126 296.19 94.6409C294.541 93.0227 292.625 92.8224 290.463 94.061L293.129 91.4686C292.444 90.7961 291.437 89.9336 290.13 88.8604Z" fill="black"/>
<path d="M316.291 135.121L317.703 134.457L313.908 126.362L312.496 127.026L316.291 135.121Z" fill="black"/>
</svg>
