<svg width="1024" height="992" viewBox="0 0 1024 992" fill="none" xmlns="http://www.w3.org/2000/svg">
<path d="M172.72 991.632C129.312 991.632 87.635 973.667 54.419 940.419C-19.229 866.531 -19.229 746.355 54.402 672.516L628.674 62.6915C718.274 -27.0525 855.522 -18.9885 955.682 81.2995C1000.56 126.26 1025.75 191.076 1024.8 259.204C1023.86 326.613 997.522 391.124 952.513 436.212L518.497 898.26C506.417 911.205 486.161 911.796 473.266 899.653C460.402 887.493 459.778 867.204 471.906 854.307L906.578 391.556C940.578 357.492 960.082 309.171 960.801 258.307C961.521 207.412 943.137 159.427 910.433 126.643C848.993 65.0745 748.96 32.8345 674.592 107.379L100.336 717.203C50.96 766.706 50.976 846.21 99.696 895.057C122.543 917.921 149.663 929.058 178.543 927.312C207.119 925.569 236.495 910.913 261.263 886.081L718.19 399.745C734.75 383.153 768.03 342.481 734.158 308.529C714.974 289.313 701.502 290.497 697.071 290.865C684.415 291.985 669.631 300.737 654.287 316.129L310.367 681.905C298.223 694.817 277.951 695.441 265.134 683.265C252.254 671.137 251.662 650.817 263.774 637.953L608.32 271.489C635.408 244.273 663.104 229.521 691.296 226.993C713.296 225.04 746.016 229.729 779.392 263.201C828.928 312.832 822.768 385.633 764.112 444.417L307.184 930.719C270.704 967.327 226.655 988.591 182.463 991.31C179.215 991.534 175.967 991.63 172.719 991.63L172.72 991.632Z" fill="#031D12"/>
</svg>
