<svg width="111" height="84" viewBox="0 0 111 84" fill="none" xmlns="http://www.w3.org/2000/svg">
<path fill-rule="evenodd" clip-rule="evenodd" d="M40.0221 0.746024C16.2513 14.5239 3.04551 30.5603 0.404814 48.8551C-3.70615 77.3357 24.5142 91.2762 38.8132 78.7508C53.1121 66.2253 44.5408 50.3271 34.1869 45.9814C23.833 41.6354 17.5013 43.149 18.6057 37.3416C19.7102 31.5344 34.4407 15.433 47.382 7.93444C48.2406 7.27549 48.5673 5.9969 47.7406 5.02685C47.1967 4.38899 46.1301 3.1379 44.5408 1.27349C43.1509 -0.356841 41.8195 -0.295816 40.0221 0.746024Z" fill="#7C9ABE"/>
<path fill-rule="evenodd" clip-rule="evenodd" d="M102.603 0.746024C78.8326 14.5239 65.6267 30.5603 62.9859 48.8551C58.8751 77.3357 87.0955 91.2762 101.394 78.7508C115.693 66.2253 107.122 50.3271 96.7682 45.9814C86.4143 41.6354 80.0822 43.149 81.187 37.3416C82.2915 31.5344 97.022 15.433 109.963 7.93444C110.822 7.27549 111.149 5.9969 110.322 5.02685C109.778 4.38899 108.711 3.1379 107.122 1.27349C105.732 -0.356841 104.401 -0.295816 102.603 0.746024Z" fill="#7C9ABE"/>
</svg>
