<svg width="111" height="84" viewBox="0 0 111 84" fill="none" xmlns="http://www.w3.org/2000/svg">
<path fill-rule="evenodd" clip-rule="evenodd" d="M70.9779 82.6231C94.7487 68.8452 107.954 52.8088 110.595 34.5141C114.706 6.03339 86.4858 -7.9071 72.1868 4.61835C57.8879 17.1438 66.4592 33.042 76.8131 37.3877C87.167 41.7337 93.4987 40.2201 92.3943 46.0276C91.2898 51.8348 76.5593 67.9361 63.618 75.4347C62.7594 76.0937 62.4327 77.3722 63.2594 78.3423C63.8033 78.9802 64.8699 80.2312 66.4592 82.0956C67.8491 83.726 69.1805 83.665 70.9779 82.6231Z" fill="#7C9ABE"/>
<path fill-rule="evenodd" clip-rule="evenodd" d="M8.39687 82.6231C32.1674 68.8452 45.3733 52.8088 48.0141 34.5141C52.1249 6.03339 23.9045 -7.9071 9.60552 4.61835C-4.69344 17.1438 3.87793 33.042 14.2318 37.3877C24.5857 41.7337 30.9178 40.2201 29.813 46.0276C28.7085 51.8348 13.978 67.9361 1.03669 75.4347C0.178097 76.0937 -0.148602 77.3722 0.678421 78.3423C1.22198 78.9802 2.28859 80.2312 3.87792 82.0956C5.26776 83.726 6.5992 83.665 8.39687 82.6231Z" fill="#7C9ABE"/>
</svg>
