<svg width="150" height="150" viewBox="0 0 150 150" fill="none" xmlns="http://www.w3.org/2000/svg">
<path d="M140.569 104.869L137.062 105.094C132.181 105.474 127.298 104.378 123.047 101.948C117.489 98.7394 111.184 97.0499 104.766 97.0499C98.3476 97.0499 92.0426 98.7394 86.4844 101.948C82.7157 104.148 78.4322 105.31 74.0688 105.318C69.7054 105.327 65.4176 104.18 61.6406 101.995C56.1569 98.6553 49.8404 96.9344 43.4203 97.0312C36.9147 96.8797 30.503 98.6047 24.9516 102C21.4664 104.135 17.4608 105.271 13.3734 105.281H9.44531C9.44531 109.448 9.40313 113.433 9.375 117.07H13.4109C19.6108 117.064 25.6904 115.358 30.9891 112.139C34.7308 109.844 39.0662 108.702 43.4531 108.858C47.8066 108.77 52.0931 109.939 55.8 112.223C61.3573 115.435 67.6626 117.126 74.0812 117.126C80.4999 117.126 86.8052 115.435 92.3625 112.223C96.1477 110.02 100.449 108.86 104.829 108.86C109.209 108.86 113.51 110.02 117.295 112.223C123.555 115.79 130.737 117.404 137.92 116.859L140.625 116.662C140.602 112.969 140.583 108.98 140.569 104.869ZM140.545 73.0359L137.062 73.2562C132.181 73.6318 127.3 72.5363 123.047 70.1109C117.489 66.9019 111.184 65.2124 104.766 65.2124C98.3476 65.2124 92.0426 66.9019 86.4844 70.1109C82.7152 72.3087 78.4319 73.4706 74.0688 73.4788C69.7057 73.487 65.418 72.3413 61.6406 70.1578C56.1509 66.8329 49.8379 65.1162 43.4203 65.2031C36.9153 65.0694 30.5071 66.793 24.9469 70.1718C21.464 72.3085 17.4595 73.4439 13.3734 73.4531H9.49219V85.2421H13.4297C19.6296 85.2356 25.7091 83.5301 31.0078 80.3109C34.7425 77.9991 39.083 76.8565 43.4719 77.0296C47.8265 76.9328 52.1157 78.1019 55.8187 80.3953C61.376 83.607 67.6814 85.2981 74.1 85.2981C80.5186 85.2981 86.824 83.607 92.3813 80.3953C96.1665 78.1922 100.468 77.0315 104.848 77.0315C109.227 77.0315 113.529 78.1922 117.314 80.3953C123.573 83.9619 130.756 85.5763 137.939 85.0312L140.602 84.8578C140.545 80.9484 140.545 76.9875 140.545 73.0359V73.0359ZM137.062 42.8296C132.182 43.1972 127.302 42.1022 123.047 39.6843C117.489 36.4753 111.184 34.7859 104.766 34.7859C98.3476 34.7859 92.0426 36.4753 86.4844 39.6843C82.7153 41.8828 78.4316 43.0447 74.0682 43.0521C69.7048 43.0595 65.4172 41.9121 61.6406 39.7265C56.1655 36.3686 49.8418 34.6523 43.4203 34.7812C36.9129 34.6095 30.496 36.3343 24.9516 39.7453C21.4691 41.8829 17.4643 43.0183 13.3781 43.0265H9.46875V54.825H13.3875C19.5874 54.8184 25.667 53.1129 30.9656 49.8937C34.7016 47.5821 39.0391 46.4304 43.4297 46.5843C47.7843 46.4926 52.0725 47.6632 55.7766 49.9546C61.3334 53.1678 67.6389 54.8596 74.0578 54.8596C80.4767 54.8596 86.7823 53.1678 92.3391 49.9546C96.1253 47.7543 100.426 46.5953 104.805 46.5953C109.185 46.5953 113.486 47.7543 117.272 49.9546C123.534 53.5135 130.714 55.1258 137.897 54.5859L140.559 54.4125C140.559 50.3859 140.559 46.4437 140.592 42.6187L137.062 42.8296Z" fill="#004999"/>
</svg>
