<svg width="150" height="150" viewBox="0 0 150 150" fill="none" xmlns="http://www.w3.org/2000/svg">
<g clip-path="url(#clip0_117_72)">
<path d="M150.023 11.6203V5.00625C148.69 5.00625 147.41 4.47634 146.467 3.53309C145.524 2.58984 144.994 1.31052 144.994 -0.0234375H138.38C138.324 1.27295 137.769 2.49766 136.832 3.39518C135.895 4.29271 134.648 4.79374 133.35 4.79374C132.052 4.79374 130.805 4.29271 129.868 3.39518C128.931 2.49766 128.376 1.27295 128.32 -0.0234375H121.683C121.604 1.31083 120.999 2.55937 120.001 3.44795C119.003 4.33652 117.692 4.79246 116.358 4.71563C115.13 4.63453 113.975 4.10842 113.107 3.23594C112.24 2.36346 111.721 1.20456 111.647 -0.0234375H105.033C104.963 1.31354 104.365 2.5681 103.371 3.46523C102.377 4.36236 101.068 4.82887 99.7313 4.7625C98.4846 4.69296 97.3073 4.1664 96.4244 3.28349C95.5415 2.40058 95.0149 1.22325 94.9454 -0.0234375H88.3313C88.2753 1.27295 87.7209 2.49766 86.7838 3.39518C85.8467 4.29271 84.5992 4.79374 83.3016 4.79374C82.004 4.79374 80.7565 4.29271 79.8194 3.39518C78.8823 2.49766 78.3279 1.27295 78.2719 -0.0234375H71.6579C71.6202 0.637654 71.4525 1.28482 71.1643 1.88099C70.8761 2.47717 70.4732 3.01064 69.9786 3.45085C69.4839 3.89107 68.9073 4.22938 68.2817 4.44641C67.6561 4.66344 66.9939 4.75492 66.3329 4.71563C65.1041 4.63036 63.9476 4.10369 63.0767 3.23274C62.2057 2.3618 61.6791 1.20531 61.5938 -0.0234375H54.9797C54.9634 0.634638 54.8168 1.28295 54.5485 1.88406C54.2802 2.48516 53.8954 3.02714 53.4164 3.47868C52.9374 3.93022 52.3737 4.28238 51.7578 4.5148C51.1419 4.74722 50.4861 4.85531 49.8282 4.83281C48.5546 4.78637 47.3457 4.25996 46.4441 3.35923C45.5425 2.4585 45.0149 1.25011 44.9672 -0.0234375H38.3532C38.3132 1.28456 37.7656 2.5256 36.8263 3.4367C35.8869 4.3478 34.6297 4.85734 33.3211 4.85734C32.0125 4.85734 30.7554 4.3478 29.816 3.4367C28.8767 2.5256 28.329 1.28456 28.2891 -0.0234375H21.675C21.6213 1.307 21.0456 2.5627 20.0726 3.47166C19.0996 4.38062 17.8076 4.86965 16.4766 4.83281C15.203 4.78637 13.9941 4.25996 13.0925 3.35923C12.1909 2.4585 11.6633 1.25011 11.6157 -0.0234375H5.00161C5.00161 1.32188 4.46255 2.61562 3.53442 3.53906C2.58585 4.47725 1.30608 5.00431 -0.0280762 5.00625V11.6203C1.30073 11.674 2.55455 12.2504 3.46052 13.224C4.3665 14.1975 4.8513 15.4895 4.80942 16.8188C4.77093 18.0917 4.24961 19.3024 3.35123 20.2051C2.45286 21.1079 1.24472 21.635 -0.0280762 21.6797V28.2937C0.631126 28.3167 1.27932 28.4695 1.8794 28.7433C2.47948 29.0171 3.01966 29.4066 3.469 29.8895C3.91835 30.3724 4.26804 30.9391 4.49804 31.5573C4.72805 32.1755 4.83387 32.833 4.80942 33.4922C4.77093 34.7652 4.24961 35.9759 3.35123 36.8786C2.45286 37.7813 1.24472 38.3085 -0.0280762 38.3531V44.9672C1.30588 44.9672 2.5852 45.4971 3.52845 46.4403C4.4717 47.3836 5.00161 48.6629 5.00161 49.9969C5.00161 51.3308 4.4717 52.6102 3.52845 53.5534C2.5852 54.4967 1.30588 55.0266 -0.0280762 55.0266V61.6406C0.643797 61.6201 1.31295 61.7347 1.93971 61.9776C2.56646 62.2206 3.13804 62.5869 3.62056 63.0549C4.10307 63.5229 4.48669 64.083 4.74866 64.702C5.01063 65.3211 5.14562 65.9864 5.14562 66.6586C5.14562 67.3308 5.01063 67.9961 4.74866 68.6152C4.48669 69.2342 4.10307 69.7943 3.62056 70.2623C3.13804 70.7303 2.56646 71.0966 1.93971 71.3396C1.31295 71.5825 0.643797 71.6971 -0.0280762 71.6766V78.3141C0.631126 78.337 1.27932 78.4898 1.8794 78.7636C2.47948 79.0375 3.01966 79.4269 3.469 79.9098C3.91835 80.3927 4.26804 80.9594 4.49804 81.5776C4.72805 82.1958 4.83387 82.8533 4.80942 83.5125C4.76951 84.7828 4.24704 85.9902 3.34834 86.8889C2.44964 87.7876 1.24225 88.3101 -0.0280762 88.35V94.9875C0.643797 94.967 1.31295 95.0816 1.93971 95.3245C2.56646 95.5674 3.13804 95.9338 3.62056 96.4017C4.10307 96.8697 4.48669 97.4299 4.74866 98.0489C5.01063 98.6679 5.14562 99.3333 5.14562 100.005C5.14562 100.678 5.01063 101.343 4.74866 101.962C4.48669 102.581 4.10307 103.141 3.62056 103.609C3.13804 104.077 2.56646 104.443 1.93971 104.686C1.31295 104.929 0.643797 105.044 -0.0280762 105.023V111.661C0.629472 111.683 1.27628 111.834 1.87535 112.106C2.47443 112.378 3.01404 112.765 3.46331 113.246C3.91259 113.726 4.26272 114.291 4.4937 114.907C4.72467 115.523 4.83196 116.178 4.80942 116.836C4.77426 118.11 4.25401 119.323 3.35494 120.226C2.45587 121.129 1.24581 121.656 -0.0280762 121.697V128.311C1.27992 128.351 2.52097 128.899 3.43206 129.838C4.34316 130.777 4.8527 132.034 4.8527 133.343C4.8527 134.652 4.34316 135.909 3.43206 136.848C2.52097 137.787 1.27992 138.335 -0.0280762 138.375V145.012C2.73286 145.012 5.00161 147.258 5.00161 150.019H11.6157C11.7037 148.686 12.3156 147.442 13.3179 146.56C14.3201 145.677 15.631 145.227 16.9641 145.308C19.5 145.477 21.5016 147.483 21.675 150.019H28.2891C28.3451 148.722 28.8995 147.498 29.8366 146.6C30.7737 145.703 32.0212 145.202 33.3188 145.202C34.6164 145.202 35.8639 145.703 36.801 146.6C37.7381 147.498 38.2925 148.722 38.3485 150.019H44.9625C45.0185 148.722 45.5729 147.498 46.51 146.6C47.4472 145.703 48.6946 145.202 49.9922 145.202C51.2898 145.202 52.5373 145.703 53.4744 146.6C54.4116 147.498 54.9659 148.722 55.0219 150.019H61.636C61.6945 148.692 62.2723 147.441 63.2448 146.536C64.2173 145.631 65.5065 145.144 66.8344 145.181C68.1042 145.23 69.3093 145.754 70.2099 146.65C71.1106 147.547 71.6409 148.749 71.6954 150.019H78.3094C78.3845 148.686 78.9843 147.436 79.9777 146.544C80.9711 145.651 82.2773 145.188 83.611 145.256C86.1751 145.383 88.2469 147.455 88.3735 150.019H94.9876C95.0626 148.686 95.6624 147.436 96.6558 146.544C97.6492 145.651 98.9555 145.188 100.289 145.256C102.853 145.383 104.925 147.455 105.052 150.019H111.666C111.753 148.741 112.322 147.544 113.258 146.67C114.194 145.796 115.426 145.31 116.707 145.31C117.988 145.31 119.221 145.796 120.156 146.67C121.092 147.544 121.661 148.741 121.748 150.019H128.367C128.435 148.734 128.994 147.524 129.927 146.639C130.861 145.753 132.098 145.259 133.385 145.259C134.672 145.259 135.91 145.753 136.843 146.639C137.777 147.524 138.335 148.734 138.403 150.019H144.989C144.995 148.689 145.528 147.416 146.471 146.477C147.413 145.539 148.689 145.012 150.019 145.012V138.375C148.686 138.292 147.441 137.685 146.553 136.688C145.666 135.691 145.208 134.383 145.28 133.05C145.361 131.822 145.887 130.667 146.759 129.799C147.632 128.932 148.791 128.413 150.019 128.339V121.725C148.722 121.669 147.498 121.115 146.6 120.178C145.703 119.24 145.202 117.993 145.202 116.695C145.202 115.398 145.703 114.15 146.6 113.213C147.498 112.276 148.722 111.722 150.019 111.666V105.028C148.687 104.942 147.443 104.335 146.556 103.339C145.669 102.342 145.21 101.036 145.28 99.7031C145.361 98.4756 145.887 97.3198 146.759 96.4525C147.632 95.5852 148.791 95.066 150.019 94.9922V88.3547C149.358 88.3247 148.709 88.1642 148.11 87.8825C147.511 87.6009 146.974 87.2035 146.529 86.7134C146.084 86.2233 145.741 85.6501 145.518 85.0268C145.296 84.4034 145.199 83.7422 145.233 83.0813C145.302 81.8346 145.829 80.6572 146.712 79.7743C147.595 78.8914 148.772 78.3648 150.019 78.2953V71.7094C148.684 71.6213 147.438 71.0103 146.55 70.0089C145.663 69.0076 145.206 67.6968 145.28 66.3609C145.361 65.1334 145.887 63.9776 146.759 63.1103C147.632 62.243 148.791 61.7238 150.019 61.65V55.0359C148.722 54.98 147.498 54.4256 146.6 53.4885C145.703 52.5513 145.202 51.3038 145.202 50.0063C145.202 48.7087 145.703 47.4612 146.6 46.524C147.498 45.5869 148.722 45.0325 150.019 44.9766V38.3625C148.684 38.2744 147.438 37.6634 146.55 36.6621C145.663 35.6607 145.206 34.3499 145.28 33.0141C145.369 31.7893 145.897 30.6379 146.768 29.7722C147.639 28.9065 148.794 28.3847 150.019 28.3031V21.6891C148.686 21.6211 147.434 21.0282 146.538 20.04C145.641 19.0518 145.172 17.7487 145.233 16.4156C145.298 15.1675 145.824 13.9879 146.707 13.1041C147.591 12.2204 148.771 11.6952 150.019 11.6297L150.023 11.6203ZM124.589 73.1203L84.5719 112.041C88.186 112.603 91.7016 113.428 95.461 113.428C104.616 113.428 115.144 110.648 122.25 107.714L118.613 124.875C108.136 129.905 101.714 130.327 95.461 130.327C88.6032 130.327 82.0594 128.077 75.3751 128.077C71.5876 128.077 66.1454 128.372 62.7985 130.594L55.5469 117.75L96.8297 76.8797H49.3219L40.261 119.405H20.4422L41.0907 22.0406H106.664L102.469 41.6953H56.8641L52.9594 59.9812H127.809L124.589 73.1203Z" fill="#BB0000"/>
</g>
<defs>
<clipPath id="clip0_117_72">
<rect width="150" height="150" fill="white"/>
</clipPath>
</defs>
</svg>
