<svg width="150" height="150" viewBox="0 0 150 150" fill="none" xmlns="http://www.w3.org/2000/svg">
<path d="M74.4609 9.84336C41.1797 9.84336 43.2844 24.234 43.2844 24.234V39.1871H74.9344V43.8746H30.6797C30.6797 43.8746 9.375 41.2496 9.375 75.023C9.375 108.796 28.1859 107.423 28.1859 107.423H39.0469V91.6684C39.0469 91.6684 38.4375 72.8574 57.3281 72.8574H89.025C89.025 72.8574 106.706 73.1387 106.706 55.7387V27.1871C106.706 27.1871 109.387 9.78711 74.6344 9.78711L74.4609 9.84336ZM56.9672 19.8605C58.0924 19.8322 59.2007 20.1381 60.152 20.7396C61.1033 21.3412 61.8549 22.2113 62.3117 23.24C62.7684 24.2687 62.9099 25.4097 62.7182 26.5188C62.5264 27.6279 62.0101 28.6552 61.2344 29.4709C60.4588 30.2865 59.4587 30.8538 58.3607 31.101C57.2626 31.3482 56.1159 31.2643 55.0655 30.8598C54.0152 30.4553 53.1084 29.7484 52.4598 28.8285C51.8113 27.9086 51.45 26.817 51.4219 25.6918V25.598C51.4219 24.0888 52.0214 22.6414 53.0886 21.5742C54.1558 20.507 55.6033 19.9074 57.1125 19.9074L56.9672 19.8605Z" fill="url(#paint0_linear_117_46)"/>
<path d="M75.3985 140.203C108.68 140.203 106.575 125.765 106.575 125.765V110.859H74.9297V106.172H119.32C119.32 106.172 140.625 108.553 140.625 74.9763C140.625 41.3998 121.814 42.5763 121.814 42.5763H110.813V58.1248C110.813 58.1248 111.422 76.9357 92.5313 76.9357H60.8204C60.8204 76.9357 43.1251 76.6685 43.1251 94.0685V122.812C43.1251 122.812 40.4438 140.212 75.1969 140.212H75.3844L75.3985 140.203ZM92.8922 130.139C91.7671 130.167 90.6587 129.861 89.7074 129.26C88.7561 128.658 88.0045 127.788 87.5478 126.759C87.091 125.731 86.9495 124.59 87.1413 123.481C87.333 122.371 87.8494 121.344 88.625 120.529C89.4006 119.713 90.4007 119.146 91.4988 118.898C92.5968 118.651 93.7436 118.735 94.7939 119.14C95.8442 119.544 96.751 120.251 97.3996 121.171C98.0482 122.091 98.4094 123.182 98.4376 124.308V124.448C98.4376 125.957 97.838 127.405 96.7708 128.472C95.7036 129.539 94.2562 130.139 92.7469 130.139H92.8876H92.8922Z" fill="url(#paint1_linear_117_46)"/>
<defs>
<linearGradient id="paint0_linear_117_46" x1="22.3461" y1="22.607" x2="84.6273" y2="84.7471" gradientUnits="userSpaceOnUse">
<stop stop-color="#387EB8"/>
<stop offset="1" stop-color="#366994"/>
</linearGradient>
<linearGradient id="paint1_linear_117_46" x1="59.1915" y1="63.0868" x2="130.349" y2="125.208" gradientUnits="userSpaceOnUse">
<stop stop-color="#FFE052"/>
<stop offset="1" stop-color="#FFC331"/>
</linearGradient>
</defs>
</svg>
